<?xml version="1.0" standalone="no"?><!DOCTYPE svg PUBLIC "-//W3C//DTD SVG 1.1//EN" "http://www.w3.org/Graphics/SVG/1.1/DTD/svg11.dtd"><svg t="1665742364582" class="icon" viewBox="0 0 1024 1024" version="1.1" xmlns="http://www.w3.org/2000/svg" p-id="4670" width="32" height="32" xmlns:xlink="http://www.w3.org/1999/xlink"><path d="M513.871448 913.619862a21.256828 21.256828 0 0 1-18.078896-10.063448l-51.588414-84.568276a21.186207 21.186207 0 0 1 36.051862-22.033655l33.368276 54.731034 195.866483-326.091034c0.211862-0.423724 0.494345-0.812138 0.741517-1.200552a234.072276 234.072276 0 0 0 42.125241-134.355862c0-130.895448-107.873103-237.391448-240.428138-237.391448-132.625655 0-240.428138 106.496-240.428138 237.391448 0 47.527724 14.124138 93.360552 40.88938 132.555034l0.564965 0.847449 117.300966 191.876414a21.186207 21.186207 0 0 1-7.026759 29.060413 21.186207 21.186207 0 0 1-29.095724-7.026758l-116.912552-191.382069a275.703172 275.703172 0 0 1-48.057379-155.930483c0-154.164966 126.834759-279.657931 282.765241-279.657931s282.765241 125.492966 282.765242 279.657931a276.338759 276.338759 0 0 1-49.363862 157.943172l-213.380414 355.398621a21.009655 21.009655 0 0 1-18.078897 10.24z" fill="#656565" p-id="4671"></path><path d="M512 533.080276c-75.034483 0-136.086069-61.051586-136.086069-136.086069S436.965517 260.943448 512 260.943448s136.086069 61.051586 136.086069 136.086069-61.051586 136.050759-136.086069 136.050759z m0-229.905655c-51.729655 0-93.784276 42.089931-93.784276 93.819586s42.054621 93.784276 93.784276 93.784276 93.784276-42.054621 93.784276-93.784276-42.054621-93.819586-93.784276-93.819586z" fill="#656565" p-id="4672"></path></svg>